<svg width="858" height="294" viewBox="0 0 858 294" fill="none" xmlns="http://www.w3.org/2000/svg">
<path d="M338.9 86.48H436.64V103.58L361.76 195.56H438.44V215H333.14V196.64L408.02 105.92H338.9V86.48ZM490.439 86.48H514.379L563.879 215H539.759L527.699 180.98H476.399L464.339 215H441.119L490.439 86.48ZM482.519 163.88H521.759L502.499 108.62H501.959L482.519 163.88ZM558.947 86.48H581.807L605.027 184.76H605.387L631.307 86.48H654.347L679.547 184.76H679.907L703.847 86.48H726.707L691.247 215H668.387L642.647 116.72H642.287L616.007 215H592.787L558.947 86.48ZM740.628 86.48H764.388L823.068 181.16H823.428V86.48H844.848V215H821.088L762.588 120.5H762.048V215H740.628V86.48Z" fill="#A1ADCB"/>
<path d="M14.64 89.76H225.84V118.32H14.64V89.76ZM104.64 33.84H135.36V259.2H104.64V33.84ZM98.4 105.36L123.84 114C118.4 126.64 112.16 138.88 105.12 150.72C98.08 162.56 90.32 173.76 81.84 184.32C73.52 194.88 64.56 204.64 54.96 213.6C45.52 222.4 35.6 230 25.2 236.4C23.6 234 21.52 231.28 18.96 228.24C16.4 225.2 13.76 222.24 11.04 219.36C8.32 216.32 5.84 213.84 3.6 211.92C13.52 206.48 23.12 199.92 32.4 192.24C41.84 184.4 50.72 175.84 59.04 166.56C67.36 157.12 74.8 147.2 81.36 136.8C88.08 126.4 93.76 115.92 98.4 105.36ZM140.88 106.56C145.52 116.8 151.28 126.96 158.16 137.04C165.04 147.12 172.64 156.72 180.96 165.84C189.44 174.96 198.32 183.36 207.6 191.04C216.88 198.72 226.4 205.2 236.16 210.48C233.92 212.24 231.36 214.64 228.48 217.68C225.76 220.56 223.12 223.6 220.56 226.8C218.16 230 216.16 232.88 214.56 235.44C204.48 229.04 194.8 221.52 185.52 212.88C176.24 204.08 167.36 194.48 158.88 184.08C150.4 173.52 142.64 162.4 135.6 150.72C128.56 139.04 122.24 127.12 116.64 114.96L140.88 106.56Z" fill="#A1ADCB"/>
</svg>
